<svg width="48" height="48" viewBox="0 0 48 48" fill="none" xmlns="http://www.w3.org/2000/svg">
<rect x="0.24" y="0.24" width="47.52" height="47.52" rx="23.76" fill="url(#paint0_linear_810_29105)"/>
<rect x="0.24" y="0.24" width="47.52" height="47.52" rx="23.76" stroke="white" stroke-width="0.48"/>
<path d="M16.0718 28.9846V27.6554H18.265V21.9131H16.0585V20.9162C16.3244 20.8896 16.6345 20.8276 16.989 20.7301C17.3523 20.6238 17.7201 20.4953 18.0922 20.3446C18.4644 20.194 18.8012 20.0345 19.1025 19.8661H19.9V27.6554H21.9204V28.9846H16.0718ZM26.256 29.1441C25.7598 29.1441 25.3167 29.0732 24.9268 28.9314C24.5369 28.7808 24.2046 28.5282 23.9298 28.1738C23.6551 27.8193 23.4469 27.3408 23.3051 26.7382C23.1633 26.1268 23.0924 25.3558 23.0924 24.4254C23.0924 23.4949 23.1633 22.7284 23.3051 22.1258C23.4469 21.5143 23.6551 21.0314 23.9298 20.6769C24.2046 20.3225 24.5369 20.0743 24.9268 19.9326C25.3167 19.7819 25.7598 19.7066 26.256 19.7066C26.7522 19.7066 27.1909 19.7819 27.5719 19.9326C27.9618 20.0743 28.2942 20.3225 28.5689 20.6769C28.8436 21.0314 29.0518 21.5143 29.1936 22.1258C29.3354 22.7284 29.4063 23.4949 29.4063 24.4254C29.4063 25.3558 29.3354 26.1268 29.1936 26.7382C29.0518 27.3408 28.8436 27.8193 28.5689 28.1738C28.2942 28.5282 27.9618 28.7808 27.5719 28.9314C27.1909 29.0732 26.7522 29.1441 26.256 29.1441ZM26.256 27.8149C26.6725 27.8149 26.9826 27.7041 27.1865 27.4826C27.3991 27.2522 27.5409 26.9154 27.6118 26.4724C27.6916 26.0204 27.7314 25.4622 27.7314 24.7975V24.1063C27.7314 23.424 27.6916 22.8569 27.6118 22.4049C27.5409 21.9441 27.3991 21.603 27.1865 21.3814C26.9826 21.151 26.6725 21.0358 26.256 21.0358C25.8484 21.0358 25.5338 21.151 25.3122 21.3814C25.0996 21.603 24.9534 21.9397 24.8736 22.3916C24.8027 22.8347 24.7673 23.393 24.7673 24.0665V24.7577C24.7673 25.4311 24.8027 25.9983 24.8736 26.4591C24.9534 26.911 25.0996 27.2522 25.3122 27.4826C25.5338 27.7041 25.8484 27.8149 26.256 27.8149ZM33.6491 28.9846V26.2464H31.1635V24.9438H33.6491V22.1922H34.9385V24.9438H37.4374V26.2464H34.9385V28.9846H33.6491Z" fill="black"/>
<defs>
<linearGradient id="paint0_linear_810_29105" x1="24" y1="0" x2="24" y2="48" gradientUnits="userSpaceOnUse">
<stop stop-color="#FFDE24"/>
<stop offset="1" stop-color="white"/>
</linearGradient>
</defs>
</svg>
