<svg width="18" height="18" viewBox="0 0 18 18" fill="none" xmlns="http://www.w3.org/2000/svg">
<g clip-path="url(#clip0_906_26062)">
<path d="M7.40536 8.46042C7.77889 8.27253 8.06129 8.06326 8.2548 7.83712C8.59908 7.42983 8.76897 6.88979 8.76897 6.22036C8.76897 5.56893 8.59908 5.01201 8.2593 4.5451C7.69226 3.78453 6.73255 3.39525 5.37569 3.375H0V14.348H5.01229C5.57708 14.348 6.10025 14.2996 6.58404 14.2006C7.06783 14.1005 7.48636 13.9171 7.84077 13.6493C8.15579 13.4164 8.41907 13.1273 8.62833 12.7864C8.95911 12.2711 9.1245 11.6872 9.1245 11.0369C9.1245 10.4068 8.97936 9.87016 8.69134 9.42912C8.39994 8.98808 7.9724 8.66518 7.40536 8.46042ZM2.21756 5.28091H4.63876C5.17092 5.28091 5.60971 5.33829 5.95399 5.45192C6.35227 5.61731 6.55141 5.95371 6.55141 6.46675C6.55141 6.92692 6.39952 7.24869 6.09913 7.42983C5.79648 7.61097 5.40382 7.70211 4.92228 7.70211H2.21756V5.28091ZM6.04625 12.2509C5.77847 12.3802 5.40157 12.4444 4.9189 12.4444H2.21756V9.518H4.95603C5.43307 9.52138 5.80435 9.58438 6.06987 9.70252C6.54241 9.91629 6.77756 10.3078 6.77756 10.8805C6.77756 11.5555 6.53454 12.0101 6.04625 12.2509Z" fill="white"/>
<path d="M16.2699 3.88672H11.5029V5.25258H16.2699V3.88672Z" fill="white"/>
<path d="M17.9261 9.27781C17.8271 8.64213 17.6088 8.08296 17.2691 7.60029C16.8967 7.0535 16.4241 6.65297 15.8492 6.39982C15.2765 6.14555 14.6319 6.01841 13.914 6.01954C12.7091 6.01954 11.7302 6.39644 10.9731 7.14463C10.2181 7.89507 9.84009 8.97403 9.84009 10.3804C9.84009 11.8801 10.2575 12.9636 11.0968 13.6285C11.9328 14.2946 12.8981 14.6265 13.9939 14.6265C15.3204 14.6265 16.3521 14.2316 17.0891 13.444C17.5605 12.9467 17.8271 12.4573 17.8856 11.9769H15.6894C15.5623 12.2143 15.4149 12.3999 15.2462 12.5349C14.9401 12.7825 14.5418 12.9062 14.0536 12.9062C13.5889 12.9062 13.1951 12.8038 12.8666 12.6002C12.3243 12.2739 12.0408 11.7024 12.0048 10.8889H17.9981C18.0071 10.188 17.9846 9.64909 17.9261 9.27781ZM12.0588 9.4882C12.1375 8.96053 12.3288 8.542 12.6326 8.2326C12.9363 7.92432 13.3661 7.76906 13.9163 7.76793C14.4237 7.76793 14.8479 7.91307 15.1933 8.20447C15.5342 8.49812 15.7266 8.92453 15.7659 9.4882H12.0588Z" fill="white"/>
</g>
<defs>
<clipPath id="clip0_906_26062">
<rect width="18" height="18" fill="white"/>
</clipPath>
</defs>
</svg>
