<svg width="246" height="40" viewBox="0 0 246 40" fill="none" xmlns="http://www.w3.org/2000/svg">
<g clip-path="url(#clip0_906_25986)">
<path d="M64.6943 9.51501C63.2033 9.51501 61.985 9.07663 61.0395 8.19986C60.1304 7.32309 59.6758 6.20886 59.6758 4.85717C59.6758 3.46895 60.1485 2.33646 61.0941 1.45969C62.0396 0.582917 63.2396 0.144531 64.6943 0.144531C66.1489 0.144531 67.349 0.582917 68.2945 1.45969C69.24 2.33646 69.7128 3.46895 69.7128 4.85717C69.7128 6.20886 69.24 7.32309 68.2945 8.19986C67.3854 9.07663 66.1853 9.51501 64.6943 9.51501ZM60.3849 12.2001H68.9491V39.2704H60.3849V12.2001Z" fill="white"/>
<path d="M92.9174 25.5161L101.973 39.2704H92.1537L89.8081 35.3797L87.1352 30.8315L84.4623 35.3797L82.0076 39.2704H72.3525L81.4076 25.5161L73.0616 12.2001H82.7168L85.226 16.31L87.1898 20.0362L89.2626 16.31L91.7719 12.2001H101.209L92.9174 25.5161Z" fill="white"/>
<path d="M117.422 11.5973C120.368 11.5973 122.914 12.1636 125.059 13.2961C127.205 14.392 128.841 15.9629 129.969 18.0087C131.132 20.018 131.714 22.3743 131.714 25.0777C131.714 25.9544 131.623 27.0321 131.441 28.3108H111.64C111.895 29.699 112.64 30.8315 113.877 31.7083C115.113 32.5485 116.695 32.9686 118.622 32.9686C119.968 32.9686 121.277 32.7677 122.55 32.3658C123.823 31.964 124.914 31.3977 125.823 30.6671L130.296 35.4893C128.768 36.9141 126.95 38.01 124.841 38.7772C122.768 39.5444 120.55 39.928 118.186 39.928C115.058 39.928 112.349 39.3617 110.058 38.2292C107.767 37.0602 106.003 35.4163 104.767 33.2974C103.53 31.1785 102.912 28.6761 102.912 25.7901C102.912 23.0136 103.512 20.5477 104.712 18.3923C105.949 16.2369 107.658 14.5747 109.84 13.4057C112.022 12.2001 114.549 11.5973 117.422 11.5973ZM117.695 18.3923C115.986 18.3923 114.586 18.8307 113.495 19.7075C112.44 20.5842 111.84 21.8081 111.695 23.3789H123.586C123.477 21.8081 122.895 20.5842 121.841 19.7075C120.822 18.8307 119.441 18.3923 117.695 18.3923Z" fill="white"/>
<path d="M136.455 0.911706H145.019V39.2704H136.455V0.911706Z" fill="white"/>
<path d="M164.46 11.5973C167.406 11.5973 169.951 12.1636 172.097 13.2961C174.243 14.392 175.879 15.9629 177.006 18.0087C178.17 20.018 178.752 22.3743 178.752 25.0777C178.752 25.9544 178.661 27.0321 178.479 28.3108H158.678C158.932 29.699 159.678 30.8315 160.914 31.7083C162.151 32.5485 163.733 32.9686 165.66 32.9686C167.006 32.9686 168.315 32.7677 169.588 32.3658C170.861 31.964 171.951 31.3977 172.861 30.6671L177.334 35.4893C175.806 36.9141 173.988 38.01 171.879 38.7772C169.806 39.5444 167.588 39.928 165.224 39.928C162.096 39.928 159.387 39.3617 157.096 38.2292C154.805 37.0602 153.041 35.4163 151.805 33.2974C150.568 31.1785 149.95 28.6761 149.95 25.7901C149.95 23.0136 150.55 20.5477 151.75 18.3923C152.987 16.2369 154.696 14.5747 156.878 13.4057C159.06 12.2001 161.587 11.5973 164.46 11.5973ZM164.733 18.3923C163.024 18.3923 161.624 18.8307 160.533 19.7075C159.478 20.5842 158.878 21.8081 158.732 23.3789H170.624C170.515 21.8081 169.933 20.5842 168.879 19.7075C167.86 18.8307 166.478 18.3923 164.733 18.3923Z" fill="white"/>
<path d="M211.749 12.2001V39.2704H204.331L203.785 36.0373C201.494 38.558 198.512 39.8184 194.839 39.8184C192.33 39.8184 190.093 39.2339 188.13 38.0648C186.202 36.8593 184.693 35.1971 183.602 33.0782C182.511 30.9228 181.966 28.4752 181.966 25.7353C181.966 22.9953 182.511 20.566 183.602 18.4471C184.693 16.2917 186.202 14.6295 188.13 13.4605C190.093 12.2549 192.33 11.6521 194.839 11.6521C196.657 11.6521 198.33 11.9809 199.858 12.6385C201.385 13.2596 202.694 14.1729 203.785 15.3784L204.331 12.2001H211.749ZM196.857 32.585C198.749 32.585 200.294 31.964 201.494 30.7219C202.694 29.4433 203.294 27.7811 203.294 25.7353C203.294 23.6895 202.694 22.0455 201.494 20.8034C200.294 19.5248 198.749 18.8855 196.857 18.8855C194.966 18.8855 193.421 19.5248 192.221 20.8034C191.057 22.082 190.475 23.726 190.475 25.7353C190.475 27.7445 191.057 29.3885 192.221 30.6671C193.421 31.9457 194.966 32.585 196.857 32.585Z" fill="white"/>
<path d="M234.81 11.5973C238.155 11.5973 240.81 12.6933 242.774 14.8852C244.774 17.0772 245.774 20.1093 245.774 23.9817V39.2704H237.21V24.4749C237.21 22.7214 236.773 21.3514 235.9 20.365C235.028 19.3787 233.828 18.8855 232.3 18.8855C230.627 18.8855 229.282 19.4517 228.264 20.5842C227.245 21.7167 226.736 23.1963 226.736 25.0229V39.2704H218.172V12.2001H225.591L226.136 15.3784C227.191 14.1729 228.445 13.2413 229.9 12.5837C231.391 11.9261 233.028 11.5973 234.81 11.5973Z" fill="white"/>
<g clip-path="url(#clip1_906_25986)">
<path d="M30.4913 21.8766C29.3773 20.7631 27.8321 20.0626 26.1251 20.0626H23.8253C22.4777 20.0626 21.2918 19.3622 20.627 18.3025C20.2676 17.7278 20.052 17.0273 20.052 16.2909V10.1664C20.0341 4.63464 15.5601 0.144531 10.026 0.144531C7.25898 0.144531 4.74349 1.25808 2.92875 3.07208C1.114 4.88608 0 7.40054 0 10.1664C0 12.9323 1.114 15.4288 2.92875 17.2428C4.74349 19.0569 7.24101 20.1704 10.008 20.1704H15.6499H16.171C19.513 20.1884 22.2082 22.9004 22.2082 26.241C22.2082 29.5817 19.513 32.2937 16.171 32.3116C15.1289 32.3116 14.1766 32.7427 13.4938 33.4252C12.811 34.1077 12.3798 35.0596 12.3798 36.1013V36.2091C12.3798 38.2925 14.0688 39.9807 16.153 39.9807H16.2608C18.3451 39.9807 20.0341 38.2925 20.0341 36.2091C20.0341 34.1256 21.723 32.4374 23.8073 32.4374H26.1072C29.521 32.4374 32.2881 29.6715 32.2881 26.259C32.306 24.5527 31.6233 22.9902 30.4913 21.8766Z" fill="url(#paint0_linear_906_25986)"/>
<path d="M31.7316 26.259C31.7316 29.6715 28.9826 32.4194 25.5687 32.4374H23.8258C22.1189 32.4374 20.6635 33.5689 20.1963 35.1314C20.0885 35.4727 20.0346 35.8319 20.0346 36.2091C20.0346 38.2925 18.3457 39.9807 16.2614 39.9807H16.1716C15.363 39.9807 14.6084 39.7293 13.9795 39.2803C13.0092 38.5978 12.3804 37.4663 12.3804 36.2091V36.1013C12.3804 35.0596 12.8116 34.1077 13.4944 33.4252C14.1771 32.7427 15.1294 32.3116 16.1716 32.3116C16.2255 32.3116 16.2794 32.3116 16.3333 32.3116C16.477 32.3116 16.6208 32.2937 16.7465 32.2757C16.8004 32.2757 16.8543 32.2578 16.9082 32.2578C16.9801 32.2578 17.052 32.2398 17.1239 32.2218C17.1598 32.2218 17.1957 32.2039 17.2496 32.2039C17.3934 32.1859 17.5371 32.15 17.6809 32.1141C17.8246 32.0782 17.9683 32.0243 18.1121 31.9884C18.9925 31.683 19.8011 31.1801 20.4479 30.5156C20.6276 30.336 20.7893 30.1564 20.933 29.9768C20.9869 29.9049 21.0588 29.8151 21.1127 29.7433C21.1486 29.7074 21.1666 29.6715 21.2025 29.6176C21.2924 29.4919 21.3643 29.3661 21.4361 29.2404V29.2224V29.2045C21.4721 29.1326 21.526 29.0608 21.5619 28.971C21.5978 28.8992 21.6338 28.8273 21.6697 28.7555C22.0291 27.9832 22.2267 27.1211 22.2267 26.2231C22.2267 25.325 22.0291 24.4629 21.6697 23.6906C21.6158 23.547 21.5439 23.4212 21.4721 23.2955C21.2205 22.8285 20.8971 22.3975 20.5377 22.0203C19.4417 20.8709 17.8965 20.1704 16.1895 20.1524H10.0446C7.27753 20.1524 4.78001 19.0389 2.96527 17.2249C2.69575 16.9375 2.42623 16.6502 2.17469 16.3448C0.827104 14.6386 0.0185547 12.4833 0.0185547 10.1485C0.0185547 7.38258 1.13256 4.88608 2.9473 3.07208C3.34259 2.67695 3.77382 2.29978 4.24098 1.97649C5.82214 0.862948 7.74469 0.198413 9.82895 0.144531C9.90082 0.144531 9.97269 0.144531 10.0446 0.144531C13.2428 0.144531 16.0817 1.63525 17.9144 3.95214C19.262 5.65838 20.0706 7.81363 20.0706 10.1485V16.273C20.0706 16.9734 20.2682 17.638 20.6096 18.1948C20.6276 18.2127 20.6455 18.2486 20.6635 18.2666C21.3283 19.3263 22.5142 20.0447 23.8618 20.0447H25.6046C27.2936 20.0447 28.8388 20.7451 29.9528 21.8587C31.0309 22.9902 31.7316 24.5527 31.7316 26.259Z" fill="url(#paint1_linear_906_25986)"/>
<path d="M17.8959 3.95214L2.15613 16.3448C0.808549 14.6386 0 12.4833 0 10.1485C0 7.38258 1.114 4.88608 2.92874 3.07208C3.32404 2.67695 3.75526 2.29978 4.22242 1.97649C5.82155 0.862948 7.7441 0.198413 9.82837 0.144531C9.90024 0.144531 9.97211 0.144531 10.044 0.144531C13.2243 0.144531 16.0632 1.63525 17.8959 3.95214Z" fill="url(#paint2_linear_906_25986)"/>
<path d="M20.0516 36.1738C20.0516 36.1918 20.0516 36.2097 20.0516 36.2277C20.0516 38.3111 18.3627 39.9994 16.2784 39.9994H16.1706C15.362 39.9994 14.6074 39.748 13.9785 39.2989C13.0083 38.6164 12.3794 37.4849 12.3794 36.2277V36.1738H20.0516Z" fill="url(#paint3_linear_906_25986)"/>
<path d="M32.3065 26.2588C32.3065 29.6713 29.5574 32.4193 26.1436 32.4372V20.0625C27.8325 20.0625 29.3778 20.763 30.4918 21.8765C31.6237 23.008 32.3065 24.5526 32.3065 26.2588Z" fill="url(#paint4_linear_906_25986)"/>
</g>
<path fill-rule="evenodd" clip-rule="evenodd" d="M40.126 0H22.1362V16.2226C22.1362 17.0004 22.7842 17.63 23.5846 17.63H26.1763C28.3107 17.63 30.2926 18.3708 31.779 19.63V7.66683H38.2965C43.8611 7.66683 46.5672 10.5928 46.5672 15.0374C46.5672 19.4449 43.8611 22.482 38.3346 22.482H34.0278C34.5614 23.5931 34.8663 24.8153 34.8663 26.1117C34.8663 27.5191 34.5232 28.8154 33.9134 29.9636H39.8973C50.3786 29.9636 56.4768 23.8894 56.4768 15.0374C56.515 6.22235 50.493 0 40.126 0ZM26.1763 34.5563H24.1182C23.0128 34.5563 22.1362 35.4081 22.1362 36.4822V39.8527H31.779V32.5562C30.2545 33.8155 28.3107 34.5563 26.1763 34.5563Z" fill="white"/>
</g>
<defs>
<linearGradient id="paint0_linear_906_25986" x1="6.33725" y1="27.4535" x2="26.092" y2="7.25636" gradientUnits="userSpaceOnUse">
<stop stop-color="#11C7F2"/>
<stop offset="0.9973" stop-color="#2A5FF4"/>
</linearGradient>
<linearGradient id="paint1_linear_906_25986" x1="4.77309" y1="32.4098" x2="23.3267" y2="7.58695" gradientUnits="userSpaceOnUse">
<stop stop-color="#11C7F2"/>
<stop offset="0.9973" stop-color="#2A5FF4"/>
</linearGradient>
<linearGradient id="paint2_linear_906_25986" x1="3.60566" y1="3.68227" x2="10.3931" y2="10.4725" gradientUnits="userSpaceOnUse">
<stop stop-color="white" stop-opacity="0.5"/>
<stop offset="0.9973" stop-color="#0A9BD7" stop-opacity="0"/>
</linearGradient>
<linearGradient id="paint3_linear_906_25986" x1="16.2247" y1="39.941" x2="16.2247" y2="36.4879" gradientUnits="userSpaceOnUse">
<stop stop-color="white" stop-opacity="0.5"/>
<stop offset="0.9973" stop-color="#0A9BD7" stop-opacity="0"/>
</linearGradient>
<linearGradient id="paint4_linear_906_25986" x1="31.7642" y1="26.2537" x2="26.6413" y2="26.2537" gradientUnits="userSpaceOnUse">
<stop stop-color="white" stop-opacity="0.5"/>
<stop offset="0.9973" stop-color="#0A9BD7" stop-opacity="0"/>
</linearGradient>
<clipPath id="clip0_906_25986">
<rect width="245.774" height="40" fill="white"/>
</clipPath>
<clipPath id="clip1_906_25986">
<rect width="32.306" height="39.8542" fill="white" transform="translate(0 0.144531)"/>
</clipPath>
</defs>
</svg>
