<svg xmlns="http://www.w3.org/2000/svg" style="display: none;">
    <symbol id="icon-star" viewBox="0 0 19 18">
        <path d="M8.38586 0.690968C8.68521 -0.230343 9.98862 -0.230344 10.288 0.690967L11.8066 5.36473C11.9404 5.77675 12.3244 6.05571 12.7576 6.05571H17.6719C18.6406 6.05571 19.0434 7.29533 18.2597 7.86473L14.284 10.7533C13.9335 11.0079 13.7868 11.4593 13.9207 11.8713L15.4393 16.5451C15.7386 17.4664 14.6842 18.2325 13.9004 17.6631L9.9247 14.7746C9.57421 14.5199 9.09962 14.5199 8.74913 14.7746L4.77339 17.6631C3.98968 18.2325 2.9352 17.4664 3.23455 16.5451L4.75314 11.8713C4.88702 11.4593 4.74036 11.0079 4.38987 10.7533L0.414135 7.86473C-0.369579 7.29533 0.0331967 6.05571 1.00192 6.05571H5.9162C6.34943 6.05571 6.73339 5.77675 6.86726 5.36473L8.38586 0.690968Z" fill="currentColor"/>
    </symbol>
    <symbol id="icon-star-outline" viewBox="0 0 19 18">
        <path d="M8.86133 0.845947C9.011 0.385291 9.66282 0.385294 9.8125 0.845947L11.3311 5.5188C11.5319 6.13683 12.108 6.55591 12.7578 6.55591H17.6719C18.1562 6.55591 18.3576 7.1755 17.9658 7.46021L13.9902 10.3489C13.4645 10.7308 13.2446 11.4076 13.4453 12.0256L14.9639 16.6995C15.1135 17.16 14.5862 17.5434 14.1943 17.259L10.2188 14.3704C9.69302 13.9884 8.98081 13.9884 8.45508 14.3704L4.47949 17.259C4.08766 17.5434 3.56031 17.16 3.70996 16.6995L5.22852 12.0256C5.42926 11.4076 5.20929 10.7308 4.68359 10.3489L0.708008 7.46021C0.316178 7.1755 0.5176 6.55591 1.00195 6.55591H5.91602C6.56585 6.55591 7.14196 6.13683 7.34277 5.5188L8.86133 0.845947Z" 
        stroke="currentColor" fill="none" stroke-width="1.2"/>
    </symbol>
</svg>
