<svg width="17" height="17" viewBox="0 0 17 17" fill="none" xmlns="http://www.w3.org/2000/svg">
<path d="M2.03458 4.06916C3.15825 4.06916 4.06916 3.15825 4.06916 2.03458C4.06916 0.910913 3.15825 0 2.03458 0C0.910913 0 0 0.910913 0 2.03458C0 3.15825 0.910913 4.06916 2.03458 4.06916Z" fill="white"/>
<path d="M3.73007 5.42773H0.339097C0.151915 5.42773 0 5.57965 0 5.76683V15.9397C0 16.1269 0.151915 16.2788 0.339097 16.2788H3.73007C3.91725 16.2788 4.06916 16.1269 4.06916 15.9397V5.76683C4.06916 5.57965 3.91725 5.42773 3.73007 5.42773Z" fill="white"/>
<path d="M13.8351 4.8633C12.3858 4.36686 10.573 4.80294 9.48581 5.5849C9.4485 5.43909 9.31558 5.33058 9.15756 5.33058H5.76659C5.57941 5.33058 5.42749 5.48249 5.42749 5.66967V15.8426C5.42749 16.0298 5.57941 16.1817 5.76659 16.1817H9.15756C9.34474 16.1817 9.49666 16.0298 9.49666 15.8426V8.53165C10.0446 8.05963 10.7506 7.90907 11.3285 8.15458C11.8886 8.39127 12.2094 8.96909 12.2094 9.73884V15.8426C12.2094 16.0298 12.3613 16.1817 12.5485 16.1817H15.9395C16.1267 16.1817 16.2786 16.0298 16.2786 15.8426V9.0559C16.2399 6.2692 14.929 5.23767 13.8351 4.8633Z" fill="white"/>
</svg>
