<svg width="162" height="32" viewBox="0 0 162 32" fill="none" xmlns="http://www.w3.org/2000/svg">
<g clip-path="url(#clip0_787_28784)">
<path fill-rule="evenodd" clip-rule="evenodd" d="M20.3816 9.34824C19.0701 8.4692 17.5281 8 15.9508 8V0C19.1055 0 22.1894 0.938384 24.8125 2.69649C27.4356 4.45458 29.48 6.95345 30.6874 9.87704C31.8946 12.8006 32.2105 16.0178 31.595 19.1214C30.9796 22.2251 29.4604 25.0761 27.2296 27.3137C24.9989 29.5514 22.1567 31.0752 19.0626 31.6926C15.9685 32.3099 12.7612 31.993 9.84665 30.7821C6.93204 29.571 4.44088 27.5203 2.68819 24.8891C0.935496 22.2579 0 19.1645 0 16H7.97538C7.97538 17.5822 8.44314 19.129 9.31947 20.4446C10.1958 21.7602 11.4414 22.7855 12.8987 23.391C14.356 23.9966 15.9596 24.155 17.5067 23.8462C19.0537 23.5376 20.4748 22.7757 21.5902 21.6569C22.7056 20.538 23.4652 19.1126 23.7729 17.5607C24.0806 16.0089 23.9227 14.4003 23.3191 12.9386C22.7154 11.4767 21.6932 10.2273 20.3816 9.34824Z" fill="#0248FF"/>
<path fill-rule="evenodd" clip-rule="evenodd" d="M7.97538 4.22794e-06C7.97538 1.05058 7.76909 2.09087 7.36829 3.06148C6.96749 4.03208 6.38003 4.91399 5.63944 5.65686C4.89887 6.39973 4.01967 6.989 3.05205 7.39104C2.08442 7.79308 1.04734 8 3.48612e-07 8L0 16C2.09468 16 4.16885 15.5862 6.1041 14.7821C8.03934 13.978 9.79775 12.7994 11.2789 11.3137C12.76 9.828 13.935 8.06416 14.7366 6.12294C15.5382 4.18172 15.9508 2.10115 15.9508 0L7.97538 4.22794e-06Z" fill="black"/>
<path d="M100.185 11.5625H96.3154V23.8923H100.185V11.5625Z" fill="black"/>
<path d="M96.7482 9.25326C97.1526 9.65918 97.6582 9.86214 98.2651 9.86214C98.8721 9.86214 99.3697 9.65918 99.7573 9.25326C100.146 8.83046 100.34 8.32302 100.34 7.73106C100.34 7.12219 100.146 6.61477 99.7573 6.20886C99.3697 5.80293 98.8721 5.59998 98.2651 5.59998C97.6582 5.59998 97.1526 5.80293 96.7482 6.20886C96.3598 6.61477 96.166 7.12219 96.166 7.73106C96.166 8.32302 96.3598 8.83046 96.7482 9.25326Z" fill="black"/>
<path d="M40.7998 23.8925V5.9812H44.7707V20.3915H52.6871V23.8925H40.7998Z" fill="black"/>
<path fill-rule="evenodd" clip-rule="evenodd" d="M59.8372 24.1724C58.5727 24.1724 57.4261 23.8933 56.3975 23.3352C55.3859 22.7601 54.585 21.9821 53.9948 21.0011C53.4047 20.0201 53.1096 18.9208 53.1096 17.703C53.1096 16.4852 53.4047 15.3944 53.9948 14.4303C54.585 13.4662 55.3859 12.7051 56.3975 12.147C57.4092 11.5719 58.5558 11.2844 59.8372 11.2844C61.1187 11.2844 62.2653 11.5635 63.277 12.1216C64.2886 12.6797 65.0896 13.4493 65.6797 14.4303C66.2699 15.3944 66.565 16.4852 66.565 17.703C66.565 18.9208 66.2699 20.0201 65.6797 21.0011C65.0896 21.9821 64.2886 22.7601 63.277 23.3352C62.2653 23.8933 61.1187 24.1724 59.8372 24.1724ZM59.8372 20.646C60.3937 20.646 60.8827 20.5276 61.3042 20.2908C61.7257 20.0371 62.0461 19.6904 62.2653 19.2506C62.5013 18.794 62.6194 18.278 62.6194 17.703C62.6194 17.128 62.5013 16.629 62.2653 16.2062C62.0292 15.7664 61.7005 15.4282 61.2789 15.1914C60.8742 14.9376 60.3937 14.8108 59.8372 14.8108C59.2977 14.8108 58.8172 14.9376 58.3956 15.1914C57.9741 15.4282 57.6453 15.7664 57.4092 16.2062C57.1732 16.646 57.0552 17.1533 57.0552 17.7284C57.0552 18.2865 57.1732 18.794 57.4092 19.2506C57.6453 19.6904 57.9741 20.0371 58.3956 20.2908C58.8172 20.5276 59.2977 20.646 59.8372 20.646Z" fill="black"/>
<path fill-rule="evenodd" clip-rule="evenodd" d="M69.6281 28.7132C70.6566 29.1868 71.8453 29.4236 73.1943 29.4236C74.5094 29.4236 75.6814 29.1614 76.7099 28.6371C77.7384 28.1128 78.5477 27.3856 79.1379 26.4553C79.728 25.5251 80.0235 24.4257 80.0235 23.1572V11.5631H76.2293V12.3915C75.9471 12.1532 75.6266 11.9532 75.2682 11.7914C74.6106 11.47 73.8602 11.3093 73.0173 11.3093C71.8875 11.3093 70.8842 11.58 70.0075 12.1212C69.1306 12.6455 68.4394 13.3728 67.9335 14.303C67.4276 15.2164 67.1748 16.248 67.1748 17.3982C67.1748 18.5314 67.4276 19.5631 67.9335 20.4933C68.4394 21.4236 69.1306 22.1593 70.0075 22.7005C70.8842 23.2417 71.8875 23.5124 73.0173 23.5124C73.8434 23.5124 74.5937 23.3517 75.2682 23.0304C75.5949 22.8747 75.89 22.6912 76.1534 22.48V23.2587C76.1534 24.1212 75.8752 24.7893 75.3188 25.2629C74.7793 25.7365 74.0289 25.9732 73.0678 25.9732C72.2922 25.9732 71.6262 25.838 71.0697 25.5673C70.5302 25.2968 70.0412 24.8992 69.6028 24.3749L67.2254 26.7597C67.8155 27.6054 68.6164 28.2566 69.6281 28.7132ZM75.1417 19.7068C74.7539 19.9436 74.2903 20.062 73.7507 20.062C73.2111 20.062 72.739 19.9436 72.3343 19.7068C71.9465 19.47 71.643 19.1487 71.4238 18.7428C71.2046 18.32 71.095 17.8717 71.095 17.3982C71.095 16.8908 71.2046 16.4341 71.4238 16.0282C71.643 15.6223 71.9549 15.3009 72.3596 15.0641C72.7643 14.8273 73.228 14.7089 73.7507 14.7089C74.2903 14.7089 74.7539 14.8273 75.1417 15.0641C75.5464 15.3009 75.8499 15.6223 76.0523 16.0282C76.2714 16.4341 76.381 16.8908 76.381 17.3982C76.381 17.9056 76.2714 18.3622 76.0523 18.7681C75.8499 19.1572 75.5464 19.47 75.1417 19.7068Z" fill="black"/>
<path fill-rule="evenodd" clip-rule="evenodd" d="M88.1685 24.1724C86.9036 24.1724 85.7567 23.8934 84.7287 23.3352C83.7166 22.7602 82.9159 21.9822 82.3257 21.0011C81.7355 20.0202 81.4404 18.9208 81.4404 17.7031C81.4404 16.4853 81.7355 15.3944 82.3257 14.4303C82.9159 13.4663 83.7166 12.7051 84.7287 12.1471C85.74 11.5719 86.8868 11.2844 88.1685 11.2844C89.4493 11.2844 90.5962 11.5635 91.6074 12.1216C92.6195 12.6798 93.4203 13.4494 94.0104 14.4303C94.6006 15.3944 94.8957 16.4853 94.8957 17.7031C94.8957 18.9208 94.6006 20.0202 94.0104 21.0011C93.4203 21.9822 92.6195 22.7602 91.6074 23.3352C90.5962 23.8934 89.4493 24.1724 88.1685 24.1724ZM88.1685 20.646C88.7243 20.646 89.2132 20.5276 89.6351 20.2908C90.0562 20.0371 90.3768 19.6904 90.5962 19.2507C90.8322 18.794 90.9503 18.2781 90.9503 17.7031C90.9503 17.128 90.8322 16.6291 90.5962 16.2063C90.3601 15.7665 90.0315 15.4283 89.6096 15.1915C89.2053 14.9377 88.7243 14.8109 88.1685 14.8109C87.6285 14.8109 87.1476 14.9377 86.7265 15.1915C86.3046 15.4283 85.976 15.7665 85.74 16.2063C85.5039 16.646 85.3859 17.1534 85.3859 17.7284C85.3859 18.2866 85.5039 18.794 85.74 19.2507C85.976 19.6904 86.3046 20.0371 86.7265 20.2908C87.1476 20.5276 87.6285 20.646 88.1685 20.646Z" fill="black"/>
<path fill-rule="evenodd" clip-rule="evenodd" d="M109.488 24.1467C108.662 24.1467 107.903 23.986 107.212 23.6647C106.848 23.4955 106.519 23.2936 106.226 23.0589V29.0939H102.406V11.5631H106.276V12.4141C106.557 12.1838 106.869 11.9847 107.212 11.8168C107.903 11.4785 108.662 11.3094 109.488 11.3094C110.651 11.3094 111.68 11.5885 112.574 12.1467C113.484 12.7047 114.193 13.4659 114.698 14.4299C115.221 15.394 115.482 16.4934 115.482 17.728C115.482 18.9627 115.221 20.0621 114.698 21.0262C114.193 21.9903 113.484 22.7513 112.574 23.3095C111.68 23.8676 110.651 24.1467 109.488 24.1467ZM108.78 20.6456C109.336 20.6456 109.817 20.5187 110.222 20.2651C110.643 20.0114 110.972 19.6646 111.208 19.2249C111.444 18.7851 111.562 18.2862 111.562 17.728C111.562 17.153 111.444 16.6456 111.208 16.2059C110.972 15.7661 110.643 15.4279 110.222 15.1911C109.817 14.9373 109.345 14.8105 108.805 14.8105C108.266 14.8105 107.785 14.9373 107.364 15.1911C106.959 15.4279 106.639 15.7661 106.403 16.2059C106.167 16.6456 106.049 17.153 106.049 17.728C106.049 18.2862 106.158 18.7851 106.377 19.2249C106.614 19.6646 106.942 20.0114 107.364 20.2651C107.785 20.5187 108.257 20.6456 108.78 20.6456Z" fill="black"/>
<path d="M119.269 23.9167C119.977 24.1028 120.693 24.1957 121.418 24.1957C122.953 24.1957 124.167 23.8406 125.061 23.1302C125.971 22.4199 126.426 21.4643 126.426 20.2634C126.426 19.4854 126.283 18.8596 125.996 18.3861C125.71 17.8956 125.339 17.5065 124.884 17.219C124.428 16.9315 123.947 16.7031 123.442 16.534C122.936 16.3649 122.455 16.2211 122.001 16.1027C121.545 15.9843 121.174 15.849 120.887 15.6968C120.601 15.5445 120.457 15.3416 120.457 15.0879C120.457 14.8511 120.567 14.6735 120.786 14.5551C121.005 14.4198 121.334 14.3522 121.772 14.3522C122.228 14.3522 122.691 14.4452 123.163 14.6313C123.652 14.8173 124.091 15.1387 124.479 15.5953L126.679 13.3628C126.123 12.6524 125.398 12.1196 124.504 11.7645C123.628 11.3924 122.667 11.2063 121.621 11.2063C120.626 11.2063 119.758 11.3754 119.016 11.7137C118.274 12.052 117.7 12.5171 117.296 13.109C116.892 13.6841 116.689 14.3691 116.689 15.1641C116.689 15.9082 116.833 16.5256 117.119 17.0161C117.405 17.4896 117.777 17.8617 118.231 18.1323C118.687 18.4029 119.168 18.6144 119.673 18.7665C120.179 18.9188 120.66 19.0625 121.115 19.1979C121.57 19.3163 121.942 19.4601 122.228 19.6292C122.532 19.7814 122.683 20.0097 122.683 20.3141C122.683 20.5509 122.556 20.7369 122.304 20.8723C122.068 21.0076 121.722 21.0753 121.267 21.0753C120.609 21.0753 120.002 20.9569 119.446 20.7201C118.889 20.4664 118.408 20.1197 118.004 19.6799L115.804 21.9125C116.226 22.3691 116.731 22.7751 117.321 23.1302C117.928 23.4685 118.578 23.7306 119.269 23.9167Z" fill="black"/>
<path d="M133.482 24.1714C132.353 24.1714 131.349 23.9431 130.473 23.4864C129.612 23.0128 128.938 22.3701 128.45 21.5583C127.96 20.7295 127.716 19.7824 127.716 18.7168V11.5625H131.585V18.6661C131.585 19.0889 131.652 19.4526 131.788 19.757C131.94 20.0615 132.159 20.2983 132.445 20.4674C132.732 20.6365 133.078 20.7211 133.482 20.7211C134.055 20.7211 134.511 20.5435 134.848 20.1883C135.186 19.8162 135.354 19.3088 135.354 18.6661V11.5625H139.223V18.6915C139.223 19.7739 138.979 20.7295 138.49 21.5583C138.001 22.3701 137.327 23.0128 136.466 23.4864C135.607 23.9431 134.612 24.1714 133.482 24.1714Z" fill="black"/>
<path d="M145.017 11.5631H141.147V23.8929H145.017V16.6878C145.017 16.265 145.102 15.9098 145.27 15.6223C145.456 15.3348 145.701 15.1148 146.004 14.9627C146.308 14.7935 146.653 14.7089 147.04 14.7089C147.597 14.7089 148.061 14.8865 148.431 15.2417C148.82 15.58 149.014 16.062 149.014 16.6878V23.8929H152.883V16.6878C152.883 16.265 152.968 15.9098 153.136 15.6223C153.322 15.3348 153.566 15.1148 153.87 14.9627C154.173 14.7935 154.519 14.7089 154.907 14.7089C155.463 14.7089 155.927 14.8865 156.297 15.2417C156.685 15.58 156.879 16.062 156.879 16.6878V23.8929H160.749V16.2565C160.749 15.2248 160.53 14.3453 160.091 13.618C159.669 12.8738 159.088 12.3072 158.346 11.9183C157.621 11.5123 156.786 11.3093 155.842 11.3093C154.881 11.3093 154.013 11.5208 153.237 11.9436C152.733 12.213 152.293 12.5607 151.916 12.9866C151.564 12.5411 151.137 12.1765 150.632 11.8928C149.958 11.5039 149.191 11.3093 148.331 11.3093C147.42 11.3093 146.603 11.5039 145.878 11.8928C145.562 12.0547 145.276 12.2485 145.017 12.4744V11.5631Z" fill="black"/>
</g>
<defs>
<clipPath id="clip0_787_28784">
<rect width="161.103" height="32" fill="white"/>
</clipPath>
</defs>
</svg>
