<svg width="127" height="32" viewBox="0 0 127 32" fill="none" xmlns="http://www.w3.org/2000/svg">
<path d="M3.12817 29.6787H30.404V2.31873H3.12817V29.6787ZM25.1541 13.3662H19.3905V7.58486H25.1541V13.3662ZM8.37704 7.58486H14.1438V18.6313H25.1541V24.4126H8.37704V7.58486ZM48.1657 2.31873C45.4683 2.31873 42.8316 3.12105 40.5889 4.62423C38.3461 6.12741 36.5981 8.26393 35.5659 10.7636C34.5337 13.2634 34.2637 16.0139 34.7898 18.6675C35.3161 21.3212 36.6149 23.7587 38.5222 25.6719C40.4295 27.5852 42.8595 28.888 45.505 29.4159C48.1506 29.9437 50.8926 29.6729 53.3847 28.6374C55.8767 27.602 58.0066 25.8486 59.5052 23.5989C61.0037 21.3492 61.8036 18.7043 61.8036 15.9987C61.7994 12.3718 60.3611 8.89477 57.8044 6.33019C55.2477 3.76561 51.7814 2.32296 48.1657 2.31873ZM48.1657 24.4126C46.5067 24.4126 44.885 23.9192 43.5055 22.9946C42.1262 22.0701 41.051 20.7561 40.4162 19.2186C39.7813 17.6812 39.6152 15.9894 39.9388 14.3572C40.2625 12.7251 41.0615 11.2259 42.2345 10.0492C43.4076 8.87253 44.9022 8.07118 46.5293 7.74653C48.1563 7.42188 49.8429 7.58851 51.3756 8.22533C52.9083 8.86215 54.2184 9.94058 55.14 11.3243C56.0618 12.7078 56.5537 14.3346 56.5537 15.9987C56.5503 18.2292 55.6654 20.3674 54.0931 21.9445C52.5208 23.5217 50.3892 24.4092 48.1657 24.4126ZM110.607 2.31873C107.909 2.31852 105.272 3.12066 103.029 4.62371C100.787 6.12676 99.0384 8.26321 98.006 10.7629C96.9737 13.2625 96.7033 16.0132 97.2295 18.6669C97.7556 21.3206 99.0544 23.7583 100.962 25.6716C102.869 27.5849 105.299 28.8879 107.945 29.4158C110.59 29.9437 113.332 29.6729 115.825 28.6376C118.316 27.6021 120.446 25.8488 121.944 23.599C123.444 21.3493 124.243 18.7044 124.243 15.9987C124.239 12.3721 122.801 8.89511 120.245 6.33057C117.689 3.76601 114.222 2.32325 110.607 2.31873ZM110.607 24.4126C108.948 24.4128 107.326 23.9195 105.946 22.9951C104.567 22.0707 103.491 20.7567 102.856 19.2193C102.221 17.6819 102.055 15.9901 102.379 14.3579C102.702 12.7258 103.501 11.2265 104.674 10.0496C105.847 8.8728 107.342 8.07134 108.969 7.74661C110.596 7.42187 112.282 7.58843 113.815 8.22523C115.348 8.86202 116.658 9.94044 117.58 11.3242C118.501 12.7078 118.993 14.3346 118.993 15.9987C118.99 18.229 118.106 20.3669 116.533 21.9441C114.961 23.5213 112.83 24.409 110.607 24.4126ZM79.3856 2.31873C76.6882 2.31873 74.0515 3.12105 71.8088 4.62423C69.566 6.12741 67.818 8.26393 66.7858 10.7636C65.7535 13.2634 65.4836 16.0139 66.0097 18.6675C66.536 21.3212 67.8348 23.7587 69.7421 25.6719C71.6494 27.5852 74.0794 28.888 76.7249 29.4159C79.3704 29.9437 82.1125 29.6729 84.6046 28.6374C87.0966 27.602 89.2265 25.8486 90.7251 23.5989C92.2236 21.3492 93.0235 18.7043 93.0235 15.9987C93.0192 12.3718 91.581 8.89477 89.0243 6.33019C86.4676 3.76561 83.0013 2.32296 79.3856 2.31873ZM79.3856 24.4126C77.8399 24.4133 76.3241 23.9857 75.0054 23.1769C73.6868 22.368 72.6165 21.2095 71.9129 19.829C71.2093 18.4485 70.8996 16.8998 71.018 15.354C71.1365 13.8081 71.6784 12.3251 72.5841 11.0687C73.4898 9.81234 74.7239 8.83138 76.1503 8.23415C77.5767 7.63691 79.1399 7.44664 80.6672 7.68432C82.1946 7.922 83.6268 8.57839 84.8058 9.58104C85.9848 10.5837 86.8646 11.8937 87.3482 13.3662H79.3856V18.6313H87.3482C86.7943 20.3116 85.7271 21.7744 84.2978 22.8121C82.8686 23.8498 81.15 24.4097 79.3856 24.4126Z" fill="black"/>
</svg>
