<svg width="197" height="32" viewBox="0 0 197 32" fill="none" xmlns="http://www.w3.org/2000/svg">
<g clip-path="url(#clip0_718_26361)">
<path d="M51.7554 7.61308C50.5626 7.61308 49.588 7.26238 48.8316 6.56096C48.1043 5.85954 47.7406 4.96816 47.7406 3.88681C47.7406 2.77624 48.1188 1.87024 48.8752 1.16882C49.6317 0.467408 50.5917 0.116699 51.7554 0.116699C52.9191 0.116699 53.8792 0.467408 54.6356 1.16882C55.392 1.87024 55.7702 2.77624 55.7702 3.88681C55.7702 4.96816 55.392 5.85954 54.6356 6.56096C53.9083 7.26238 52.9482 7.61308 51.7554 7.61308ZM48.3079 9.76117H55.1593V31.4174H48.3079V9.76117Z" fill="black"/>
<path d="M74.3339 20.4139L81.578 31.4174H73.723L71.8465 28.3049L69.7082 24.6663L67.5699 28.3049L65.6061 31.4174H57.882L65.1261 20.4139L58.4493 9.76117H66.1734L68.1808 13.0491L69.7518 16.0301L71.4101 13.0491L73.4175 9.76117H80.9671L74.3339 20.4139Z" fill="black"/>
<path d="M93.9378 9.27895C96.2943 9.27895 98.3308 9.73194 100.047 10.6379C101.764 11.5147 103.073 12.7714 103.975 14.408C104.906 16.0155 105.371 17.9005 105.371 20.0632C105.371 20.7646 105.299 21.6268 105.153 22.6497H89.3121C89.5157 23.7603 90.1121 24.6663 91.1013 25.3677C92.0904 26.0399 93.356 26.376 94.8979 26.376C95.9743 26.376 97.0216 26.2152 98.0399 25.8937C99.0581 25.5723 99.9309 25.1193 100.658 24.5347L104.237 28.3925C103.015 29.5323 101.56 30.4091 99.8727 31.0228C98.2145 31.6366 96.4398 31.9435 94.5488 31.9435C92.0468 31.9435 89.8794 31.4905 88.0465 30.5845C86.2137 29.6492 84.8027 28.3341 83.8135 26.639C82.8244 24.9439 82.3298 22.9419 82.3298 20.6331C82.3298 18.412 82.8098 16.4392 83.7699 14.7149C84.759 12.9906 86.1264 11.6608 87.872 10.7256C89.6175 9.76117 91.6395 9.27895 93.9378 9.27895ZM94.156 14.7149C92.7886 14.7149 91.6686 15.0656 90.7958 15.767C89.9521 16.4685 89.4721 17.4475 89.3557 18.7042H98.869C98.7818 17.4475 98.3163 16.4685 97.4726 15.767C96.658 15.0656 95.5525 14.7149 94.156 14.7149Z" fill="black"/>
<path d="M109.164 0.730439H116.015V31.4174H109.164V0.730439Z" fill="black"/>
<path d="M131.568 9.27895C133.925 9.27895 135.961 9.73194 137.678 10.6379C139.394 11.5147 140.703 12.7714 141.605 14.408C142.536 16.0155 143.002 17.9005 143.002 20.0632C143.002 20.7646 142.929 21.6268 142.783 22.6497H126.942C127.146 23.7603 127.742 24.6663 128.732 25.3677C129.721 26.0399 130.986 26.376 132.528 26.376C133.605 26.376 134.652 26.2152 135.67 25.8937C136.688 25.5723 137.561 25.1193 138.289 24.5347L141.867 28.3925C140.645 29.5323 139.19 30.4091 137.503 31.0228C135.845 31.6366 134.07 31.9435 132.179 31.9435C129.677 31.9435 127.51 31.4905 125.677 30.5845C123.844 29.6492 122.433 28.3341 121.444 26.639C120.455 24.9439 119.96 22.9419 119.96 20.6331C119.96 18.412 120.44 16.4392 121.4 14.7149C122.389 12.9906 123.757 11.6608 125.502 10.7256C127.248 9.76117 129.27 9.27895 131.568 9.27895ZM131.786 14.7149C130.419 14.7149 129.299 15.0656 128.426 15.767C127.582 16.4685 127.102 17.4475 126.986 18.7042H136.499C136.412 17.4475 135.947 16.4685 135.103 15.767C134.288 15.0656 133.183 14.7149 131.786 14.7149Z" fill="black"/>
<path d="M169.399 9.76117V31.4174H163.465L163.028 28.8309C161.195 30.8475 158.81 31.8558 155.871 31.8558C153.864 31.8558 152.075 31.3882 150.504 30.4529C148.962 29.4885 147.754 28.1587 146.882 26.4636C146.009 24.7393 145.573 22.7812 145.573 20.5893C145.573 18.3974 146.009 16.4538 146.882 14.7588C147.754 13.0344 148.962 11.7047 150.504 10.7695C152.075 9.80501 153.864 9.32279 155.871 9.32279C157.326 9.32279 158.664 9.58582 159.886 10.1119C161.108 10.6087 162.155 11.3394 163.028 12.3038L163.465 9.76117H169.399ZM157.486 26.0691C158.999 26.0691 160.235 25.5723 161.195 24.5786C162.155 23.5557 162.635 22.2259 162.635 20.5893C162.635 18.9526 162.155 17.6375 161.195 16.6438C160.235 15.6209 158.999 15.1095 157.486 15.1095C155.973 15.1095 154.737 15.6209 153.777 16.6438C152.846 17.6667 152.38 18.9819 152.38 20.5893C152.38 22.1967 152.846 23.5118 153.777 24.5347C154.737 25.5576 155.973 26.0691 157.486 26.0691Z" fill="black"/>
<path d="M187.848 9.27895C190.524 9.27895 192.648 10.1557 194.219 11.9093C195.819 13.6628 196.619 16.0885 196.619 19.1864V31.4174H189.768V19.581C189.768 18.1782 189.419 17.0822 188.72 16.2931C188.022 15.504 187.062 15.1095 185.84 15.1095C184.502 15.1095 183.426 15.5625 182.611 16.4685C181.796 17.3745 181.389 18.5581 181.389 20.0194V31.4174H174.538V9.76117H180.473L180.909 12.3038C181.753 11.3394 182.756 10.5941 183.92 10.068C185.113 9.54198 186.422 9.27895 187.848 9.27895Z" fill="black"/>
<g clip-path="url(#clip1_718_26361)">
<path d="M24.393 17.5024C23.5018 16.6115 22.2656 16.0512 20.9001 16.0512H19.0602C17.9821 16.0512 17.0334 15.4908 16.5016 14.6431C16.2141 14.1833 16.0416 13.6229 16.0416 13.0338V8.13423C16.0272 3.70878 12.4481 0.116699 8.02081 0.116699C5.80718 0.116699 3.79479 1.00754 2.34299 2.45874C0.891197 3.90994 -3.8147e-06 5.92151 -3.8147e-06 8.13423C-3.8147e-06 10.347 0.891197 12.3442 2.34299 13.7954C3.79479 15.2466 5.7928 16.1374 8.00643 16.1374H12.5199H12.9368C15.6104 16.1518 17.7665 18.3214 17.7665 20.9939C17.7665 23.6664 15.6104 25.836 12.9368 25.8504C12.1031 25.8504 11.3412 26.1952 10.795 26.7412C10.2488 27.2872 9.90383 28.0487 9.90383 28.8821V28.9683C9.90383 30.635 11.255 31.9857 12.9224 31.9857H13.0087C14.6761 31.9857 16.0272 30.635 16.0272 28.9683C16.0272 27.3016 17.3784 25.951 19.0458 25.951H20.8857C23.6168 25.951 25.8305 23.7382 25.8305 21.0083C25.8448 19.6433 25.2986 18.3932 24.393 17.5024Z" fill="url(#paint0_linear_718_26361)"/>
<path d="M25.3851 21.0084C25.3851 23.7383 23.1859 25.9367 20.4548 25.9511H19.0605C17.6949 25.9511 16.5306 26.8563 16.1569 28.1063C16.0706 28.3793 16.0275 28.6667 16.0275 28.9684C16.0275 30.6351 14.6763 31.9858 13.0089 31.9858H12.9371C12.2902 31.9858 11.6865 31.7846 11.1834 31.4254C10.4072 30.8794 9.9041 29.9742 9.9041 28.9684V28.8822C9.9041 28.0488 10.2491 27.2873 10.7953 26.7413C11.3415 26.1953 12.1033 25.8505 12.9371 25.8505C12.9802 25.8505 13.0233 25.8505 13.0664 25.8505C13.1814 25.8505 13.2964 25.8361 13.397 25.8217C13.4402 25.8217 13.4833 25.8074 13.5264 25.8074C13.5839 25.8074 13.6414 25.793 13.6989 25.7786C13.7276 25.7786 13.7564 25.7643 13.7995 25.7643C13.9145 25.7499 14.0295 25.7212 14.1445 25.6924C14.2595 25.6637 14.3745 25.6206 14.4895 25.5919C15.1938 25.3476 15.8406 24.9453 16.3581 24.4137C16.5019 24.27 16.6312 24.1263 16.7462 23.9826C16.7893 23.9251 16.8468 23.8533 16.89 23.7958C16.9187 23.7671 16.9331 23.7383 16.9618 23.6952C17.0337 23.5947 17.0912 23.4941 17.1487 23.3935V23.3791V23.3648C17.1774 23.3073 17.2206 23.2498 17.2493 23.178C17.2781 23.1205 17.3068 23.063 17.3356 23.0056C17.623 22.3877 17.7812 21.698 17.7812 20.9796C17.7812 20.2612 17.623 19.5715 17.3356 18.9537C17.2924 18.8387 17.2349 18.7382 17.1774 18.6376C16.9762 18.264 16.7175 17.9192 16.43 17.6174C15.5532 16.6979 14.317 16.1375 12.9514 16.1231H8.03545C5.82182 16.1231 3.82381 15.2323 2.37201 13.7811C2.1564 13.5512 1.94078 13.3213 1.73955 13.077C0.66148 11.712 0.0146408 9.98784 0.0146408 8.11996C0.0146408 5.90724 0.905841 3.91004 2.35764 2.45884C2.67387 2.14273 3.01885 1.841 3.39258 1.58237C4.65751 0.691532 6.19555 0.159903 7.86296 0.116798C7.92045 0.116798 7.97795 0.116798 8.03545 0.116798C10.5941 0.116798 12.8652 1.30937 14.3314 3.16289C15.4094 4.52788 16.0563 6.25208 16.0563 8.11996V13.0196C16.0563 13.5799 16.2144 14.1116 16.4875 14.557C16.5019 14.5713 16.5162 14.6001 16.5306 14.6144C17.0625 15.4622 18.0111 16.0369 19.0892 16.0369H20.4835C21.8347 16.0369 23.0709 16.5973 23.9621 17.4881C24.8245 18.3933 25.3851 19.6434 25.3851 21.0084Z" fill="url(#paint1_linear_718_26361)"/>
<path d="M14.3167 3.16279L1.7249 13.0769C0.646836 11.7119 -3.8147e-06 9.98775 -3.8147e-06 8.11986C-3.8147e-06 5.90714 0.891197 3.90994 2.34299 2.45874C2.65922 2.14263 3.00421 1.8409 3.37794 1.58227C4.65724 0.691433 6.19528 0.159804 7.86269 0.116699C7.92019 0.116699 7.97768 0.116699 8.03518 0.116699C10.5794 0.116699 12.8505 1.30927 14.3167 3.16279Z" fill="url(#paint2_linear_718_26361)"/>
<path d="M16.0413 28.9396C16.0413 28.9539 16.0413 28.9683 16.0413 28.9827C16.0413 30.6494 14.6901 32 13.0227 32H12.9365C12.2896 32 11.6859 31.7989 11.1828 31.4396C10.4066 30.8936 9.90351 29.9884 9.90351 28.9827V28.9396H16.0413Z" fill="url(#paint3_linear_718_26361)"/>
<path d="M25.8452 21.0082C25.8452 23.7382 23.6459 25.9366 20.9148 25.951V16.0512C22.266 16.0512 23.5022 16.6115 24.3934 17.5024C25.299 18.4076 25.8452 19.6433 25.8452 21.0082Z" fill="url(#paint4_linear_718_26361)"/>
</g>
<path fill-rule="evenodd" clip-rule="evenodd" d="M32.101 0H17.7092V12.9781C17.7092 13.6003 18.2275 14.104 18.8678 14.104H20.9412C22.6487 14.104 24.2343 14.6966 25.4234 15.704V6.13346H30.6374C35.0891 6.13346 37.254 8.47425 37.254 12.0299C37.254 15.5559 35.0891 17.9856 30.6679 17.9856H27.2224C27.6493 18.8745 27.8932 19.8523 27.8932 20.8893C27.8932 22.0153 27.6188 23.0523 27.1309 23.9709H31.918C40.3031 23.9709 45.1817 19.1115 45.1817 12.0299C45.2122 4.97788 40.3946 0 32.101 0ZM20.9412 27.645H19.2947C18.4105 27.645 17.7092 28.3265 17.7092 29.1858V31.8822H25.4234V26.045C24.2038 27.0524 22.6487 27.645 20.9412 27.645Z" fill="black"/>
</g>
<defs>
<linearGradient id="paint0_linear_718_26361" x1="5.06979" y1="21.9639" x2="20.8736" y2="5.80617" gradientUnits="userSpaceOnUse">
<stop stop-color="#11C7F2"/>
<stop offset="0.9973" stop-color="#2A5FF4"/>
</linearGradient>
<linearGradient id="paint1_linear_718_26361" x1="3.81827" y1="25.929" x2="18.6612" y2="6.07074" gradientUnits="userSpaceOnUse">
<stop stop-color="#11C7F2"/>
<stop offset="0.9973" stop-color="#2A5FF4"/>
</linearGradient>
<linearGradient id="paint2_linear_718_26361" x1="2.88453" y1="2.94689" x2="8.31446" y2="8.37904" gradientUnits="userSpaceOnUse">
<stop stop-color="white" stop-opacity="0.5"/>
<stop offset="0.9973" stop-color="#0A9BD7" stop-opacity="0"/>
</linearGradient>
<linearGradient id="paint3_linear_718_26361" x1="12.9797" y1="31.9533" x2="12.9797" y2="29.1908" gradientUnits="userSpaceOnUse">
<stop stop-color="white" stop-opacity="0.5"/>
<stop offset="0.9973" stop-color="#0A9BD7" stop-opacity="0"/>
</linearGradient>
<linearGradient id="paint4_linear_718_26361" x1="25.4114" y1="21.0042" x2="21.313" y2="21.0042" gradientUnits="userSpaceOnUse">
<stop stop-color="white" stop-opacity="0.5"/>
<stop offset="0.9973" stop-color="#0A9BD7" stop-opacity="0"/>
</linearGradient>
<clipPath id="clip0_718_26361">
<rect width="196.619" height="32" fill="white"/>
</clipPath>
<clipPath id="clip1_718_26361">
<rect width="25.8448" height="31.8833" fill="white" transform="translate(-3.8147e-06 0.116699)"/>
</clipPath>
</defs>
</svg>
