<svg width="84" height="32" viewBox="0 0 84 32" fill="none" xmlns="http://www.w3.org/2000/svg">
<g clip-path="url(#clip0_787_28797)">
<path d="M38.3906 28.1912H40.5714V19.9397H38.3906V28.1912ZM38.3906 18.6529H40.5714V16.6906H38.3906V18.6529Z" fill="black"/>
<path d="M41.9746 30.8914H44.1554V27.2563H44.1875C44.6525 27.964 45.4062 28.4304 46.5607 28.4304C48.6774 28.4304 50.1205 26.7416 50.1205 24.0715C50.1205 21.4979 48.7254 19.7125 46.5447 19.7125C45.4222 19.7125 44.6525 20.2433 44.1233 20.9671H44.0752V19.9377H41.9746V30.8914ZM46.0957 26.6128C44.7969 26.6128 44.1073 25.6317 44.1073 24.1358C44.1073 22.656 44.6525 21.4818 46.0155 21.4818C47.3625 21.4818 47.9077 22.5756 47.9077 24.1358C47.9077 25.696 47.2022 26.6128 46.0957 26.6128Z" fill="black"/>
<path d="M54.4735 28.4304C56.526 28.4304 57.9371 27.4332 57.9371 25.7764C57.9371 23.8463 56.4138 23.4603 55.0347 23.1708C53.8641 22.9295 52.7737 22.8651 52.7737 22.1574C52.7737 21.5623 53.335 21.2405 54.1849 21.2405C55.1149 21.2405 55.6761 21.5623 55.7723 22.4469H57.7447C57.5843 20.7902 56.3817 19.7125 54.2169 19.7125C52.3408 19.7125 50.8655 20.565 50.8655 22.3504C50.8655 24.1519 52.3088 24.554 53.784 24.8436C54.9064 25.0687 55.9487 25.1492 55.9487 25.9373C55.9487 26.5164 55.4035 26.8863 54.4414 26.8863C53.4633 26.8863 52.7898 26.4681 52.6455 25.5191H50.625C50.7533 27.2724 52.0843 28.4304 54.4735 28.4304Z" fill="black"/>
<path d="M66.2166 28.1889V19.9375H64.0358V24.6985C64.0358 25.7923 63.4105 26.5644 62.3842 26.5644C61.4542 26.5644 61.0212 26.0336 61.0212 25.0685V19.9375H58.8564V25.4385C58.8564 27.2399 59.8827 28.4141 61.7108 28.4141C62.8653 28.4141 63.5067 27.9798 64.068 27.2238H64.1161V28.1889H66.2166Z" fill="black"/>
<path d="M67.625 28.1892H69.8059V23.3959C69.8059 22.3021 70.3992 21.5944 71.2811 21.5944C72.0828 21.5944 72.5479 22.0769 72.5479 23.0099V28.1892H74.7287V23.3959C74.7287 22.3021 75.2899 21.5944 76.2039 21.5944C77.0056 21.5944 77.4707 22.0769 77.4707 23.0099V28.1892H79.6515V22.64C79.6515 20.8384 78.6733 19.7125 76.9415 19.7125C75.8992 19.7125 75.0333 20.2594 74.4721 21.1601H74.44C74.0391 20.2916 73.2053 19.7125 72.163 19.7125C71.0245 19.7125 70.2227 20.2916 69.7737 21.0476H69.7256V19.9377H67.625V28.1892Z" fill="black"/>
<path d="M38.4219 14.0568H40.6027V2.55627H38.4219V14.0568Z" fill="black"/>
<path d="M45.9352 14.2992C48.4848 14.2992 50.2326 12.4012 50.2326 9.94025C50.2326 7.47929 48.4848 5.5813 45.9352 5.5813C43.3856 5.5813 41.6377 7.47929 41.6377 9.94025C41.6377 12.4012 43.3856 14.2992 45.9352 14.2992ZM45.9352 12.6264C44.5882 12.6264 43.8506 11.5487 43.8506 9.94025C43.8506 8.33177 44.5882 7.23803 45.9352 7.23803C47.2661 7.23803 48.0198 8.33177 48.0198 9.94025C48.0198 11.5487 47.2661 12.6264 45.9352 12.6264Z" fill="black"/>
<path d="M54.8715 16.8727C56.0903 16.8727 57.1486 16.5832 57.8381 15.9398C58.4474 15.3768 58.8162 14.5887 58.8162 13.4306V5.80642H56.7156V6.675H56.6835C56.1864 5.98335 55.4328 5.58124 54.4065 5.58124C52.322 5.58124 50.8467 7.15754 50.8467 9.61851C50.8467 12.1116 52.6427 13.5592 54.4707 13.5592C55.513 13.5592 56.1383 13.1411 56.6194 12.5942H56.6675V13.4949C56.6675 14.6208 56.0742 15.216 54.8395 15.216C53.8292 15.216 53.3643 14.8139 53.1879 14.2992H51.0231C51.2476 15.9076 52.6266 16.8727 54.8715 16.8727ZM54.8395 11.806C53.717 11.806 52.9794 10.9857 52.9794 9.58635C52.9794 8.20307 53.717 7.33447 54.8234 7.33447C56.1383 7.33447 56.7797 8.36387 56.7797 9.57027C56.7797 10.7927 56.2185 11.806 54.8395 11.806Z" fill="black"/>
<path d="M64.1158 14.2992C66.6654 14.2992 68.4133 12.4012 68.4133 9.94025C68.4133 7.47929 66.6654 5.5813 64.1158 5.5813C61.5662 5.5813 59.8184 7.47929 59.8184 9.94025C59.8184 12.4012 61.5662 14.2992 64.1158 14.2992ZM64.1158 12.6264C62.7689 12.6264 62.0312 11.5487 62.0312 9.94025C62.0312 8.33177 62.7689 7.23803 64.1158 7.23803C65.4467 7.23803 66.2004 8.33177 66.2004 9.94025C66.2004 11.5487 65.4467 12.6264 64.1158 12.6264Z" fill="black"/>
<path d="M70.3252 10.9038H79.7538V9.02185H70.3252V10.9038Z" fill="black"/>
<path d="M80.4434 18.5358C80.4434 18.1657 80.7424 17.8656 81.1117 17.8656H82.4476C82.8168 17.8656 83.1159 18.1657 83.1159 18.5358C83.1159 18.9059 82.8168 19.206 82.4476 19.206H81.1117C80.7424 19.206 80.4434 18.9059 80.4434 18.5358Z" fill="black"/>
<path fill-rule="evenodd" clip-rule="evenodd" d="M16.3668 0C25.1761 0 32.3175 7.16344 32.3175 16C32.3175 24.8366 25.1761 32 16.3668 32C7.55742 32 0.416016 24.8366 0.416016 16C0.416016 7.16344 7.55742 0 16.3668 0ZM15.7902 1.19727C13.9706 1.45415 12.2378 2.92086 10.8928 5.37392C10.5026 6.08546 10.1506 6.87157 9.84379 7.72035C11.6727 7.25934 13.6818 6.98754 15.7902 6.9455V1.19727ZM8.49571 8.10464C8.87717 6.90366 9.34389 5.79872 9.88247 4.81652C10.5492 3.60047 11.3405 2.55036 12.2321 1.74382C7.38394 3.15618 3.56248 6.98943 2.15447 11.8526C2.95852 10.9582 4.00541 10.1645 5.21772 9.49568C6.19689 8.95544 7.29843 8.48728 8.49571 8.10464ZM8.11257 9.45688C7.65301 11.2914 7.38205 13.3067 7.34014 15.4217H1.6096C1.8657 13.5963 3.32789 11.8582 5.7734 10.5091C6.48276 10.1178 7.26644 9.76464 8.11257 9.45688ZM8.49348 15.4217C8.54109 13.1136 8.87231 10.9467 9.42038 9.03216C11.329 8.4824 13.4893 8.15008 15.7902 8.10232V10.6006C14.9318 12.805 13.1811 14.561 10.9835 15.4217H8.49348ZM7.34014 16.5783H1.6096C1.8657 18.4037 3.32789 20.1417 5.7734 21.4909C6.48276 21.8822 7.26644 22.2354 8.11257 22.5431C7.65301 20.7086 7.38205 18.6933 7.34014 16.5783ZM9.42038 22.9678C8.87231 21.0533 8.54109 18.8864 8.49348 16.5783H10.9835C13.1811 17.439 14.9319 19.195 15.7902 21.3994V23.8977C13.4893 23.8499 11.329 23.5176 9.42038 22.9678ZM8.49571 23.8954C7.29843 23.5127 6.19689 23.0446 5.21772 22.5043C4.00541 21.8355 2.95852 21.0418 2.15447 20.1474C3.56248 25.0106 7.38394 28.8438 12.2321 30.2562C11.3405 29.4496 10.5492 28.3995 9.88247 27.1834C9.34389 26.2013 8.87717 25.0963 8.49571 23.8954ZM15.7902 30.8027C13.9706 30.5458 12.2378 29.0791 10.8928 26.6261C10.5026 25.9146 10.1506 25.1284 9.84379 24.2797C11.6727 24.7406 13.6818 25.0125 15.7902 25.0545V30.8027ZM20.5015 30.2562C21.393 29.4496 22.1843 28.3995 22.8512 27.1834C23.3897 26.2013 23.8564 25.0963 24.2378 23.8954C25.4351 23.5127 26.5367 23.0446 27.5159 22.5043C28.7281 21.8355 29.7751 21.0418 30.5791 20.1474C29.1711 25.0106 25.3496 28.8438 20.5015 30.2562ZM22.8898 24.2797C22.5829 25.1284 22.2309 25.9146 21.8408 26.6261C20.4958 29.0791 18.7631 30.5458 16.9433 30.8027V25.0545C19.0518 25.0125 21.0608 24.7406 22.8898 24.2797ZM24.621 22.5431C25.4671 22.2354 26.2508 21.8822 26.9602 21.4909C29.4056 20.1417 30.8679 18.4037 31.1239 16.5783H25.3934C25.3515 18.6933 25.0805 20.7086 24.621 22.5431ZM24.2401 16.5783C24.1925 18.8864 23.8612 21.0533 23.3132 22.9678C21.4045 23.5176 19.2443 23.8499 16.9433 23.8977V21.4012C17.8014 19.1961 19.5525 17.4393 21.7508 16.5783H24.2401ZM25.3934 15.4217H31.1239C30.8679 13.5963 29.4056 11.8582 26.9602 10.5091C26.2508 10.1178 25.4671 9.76464 24.621 9.45688C25.0805 11.2914 25.3515 13.3067 25.3934 15.4217ZM23.3132 9.03216C23.8612 10.9467 24.1925 13.1136 24.2401 15.4217H21.7508C19.5525 14.5607 17.8014 12.8039 16.9433 10.5988V8.10232C19.2443 8.15008 21.4045 8.4824 23.3132 9.03216ZM24.2378 8.10464C25.4351 8.48728 26.5367 8.95544 27.5159 9.49568C28.7281 10.1645 29.7751 10.9582 30.5791 11.8526C29.1711 6.98943 25.3496 3.15618 20.5015 1.74382C21.393 2.55036 22.1843 3.60047 22.8512 4.81652C23.3897 5.79872 23.8564 6.90366 24.2378 8.10464ZM16.9433 1.19727C18.7631 1.45415 20.4958 2.92086 21.8408 5.37392C22.2309 6.08547 22.5829 6.87157 22.8898 7.72035C21.0608 7.25934 19.0518 6.98754 16.9433 6.9455V1.19727Z" fill="black"/>
</g>
<defs>
<clipPath id="clip0_787_28797">
<rect width="83.7415" height="32" fill="white"/>
</clipPath>
</defs>
</svg>
