<svg width="70" height="32" viewBox="0 0 70 32" fill="none" xmlns="http://www.w3.org/2000/svg">
<path d="M1.79395 19.1406H3.75861V28.8037H1.79395V19.1406Z" fill="black"/>
<path d="M4.89664 25.4957C4.89534 24.8016 5.09934 24.1227 5.48282 23.545C5.8663 22.9673 6.41201 22.5166 7.05092 22.2501C7.68978 21.9836 8.39314 21.9132 9.07195 22.0478C9.75076 22.1824 10.3745 22.516 10.8642 23.0063C11.3539 23.4966 11.6877 24.1217 11.8231 24.8023C11.9586 25.4829 11.8898 26.1886 11.6252 26.83C11.3607 27.4713 10.9125 28.0196 10.3373 28.4053C9.76206 28.7911 9.08568 28.997 8.39376 28.997C7.93355 29.0022 7.47701 28.9154 7.05078 28.7413C6.62456 28.5673 6.23724 28.3097 5.91154 27.9836C5.58584 27.6575 5.3283 27.2695 5.15403 26.8422C4.97976 26.415 4.89225 25.9572 4.89664 25.4957ZM9.91304 25.4957C9.90534 25.1961 9.8097 24.9053 9.63813 24.66C9.46656 24.4146 9.22667 24.2254 8.94843 24.1161C8.6702 24.0067 8.36602 23.9821 8.07398 24.0453C7.78188 24.1085 7.51488 24.2566 7.30627 24.4713C7.09773 24.6859 6.95688 24.9574 6.90135 25.252C6.84584 25.5465 6.87814 25.8509 6.99419 26.127C7.11028 26.4032 7.30495 26.639 7.55385 26.8047C7.80282 26.9705 8.09493 27.059 8.39376 27.0591C8.59814 27.0649 8.80155 27.0281 8.99108 26.951C9.18062 26.8739 9.3522 26.7583 9.49499 26.6114C9.63771 26.4644 9.74861 26.2895 9.82052 26.0975C9.89251 25.9054 9.924 25.7005 9.91304 25.4957Z" fill="black"/>
<path d="M19.7884 22.1833V28.4764C19.7884 30.7033 18.053 31.6428 16.2979 31.6428C15.6808 31.6888 15.0628 31.5636 14.5118 31.2809C13.9608 30.9982 13.4981 30.5688 13.1741 30.0399L14.8637 29.0611C14.9978 29.3321 15.2099 29.5566 15.4726 29.7054C15.7353 29.8541 16.0365 29.9203 16.3372 29.8953C16.535 29.9285 16.7378 29.9155 16.9299 29.8575C17.122 29.7996 17.2982 29.6981 17.445 29.561C17.5918 29.4239 17.7053 29.2548 17.7766 29.0668C17.848 28.8787 17.8753 28.6768 17.8565 28.4764V27.8655C17.6256 28.1506 17.3308 28.377 16.9963 28.5265C16.6619 28.676 16.2969 28.7444 15.9312 28.7261C15.0419 28.7261 14.1891 28.3717 13.5602 27.741C12.9314 27.1102 12.5781 26.2547 12.5781 25.3627C12.5781 24.4707 12.9314 23.6152 13.5602 22.9845C14.1891 22.3537 15.0419 21.9993 15.9312 21.9993C16.2967 21.9826 16.6611 22.0517 16.9954 22.201C17.3296 22.3504 17.6245 22.576 17.8565 22.8599V22.203L19.7884 22.1833ZM17.8565 25.3627C17.8696 25.0432 17.7871 24.7271 17.6197 24.455C17.4522 24.1829 17.2075 23.9673 16.9169 23.8359C16.6263 23.7044 16.3031 23.6631 15.989 23.7174C15.6748 23.7716 15.384 23.9189 15.154 24.1401C14.9239 24.3615 14.765 24.6468 14.6979 24.9593C14.6307 25.2719 14.6583 25.5975 14.7771 25.8942C14.8959 26.191 15.1004 26.4453 15.3644 26.6245C15.6285 26.8037 15.9399 26.8996 16.2586 26.8999C16.4667 26.9146 16.6755 26.8855 16.8717 26.8144C17.0678 26.7432 17.247 26.6317 17.3975 26.4869C17.548 26.342 17.6667 26.1671 17.7458 25.9735C17.8248 25.7799 17.8625 25.5719 17.8565 25.3627Z" fill="black"/>
<path d="M20.922 25.4957C20.9207 24.8017 21.1247 24.1228 21.5082 23.5451C21.8917 22.9673 22.4374 22.5167 23.0763 22.2502C23.7152 21.9837 24.4185 21.9133 25.0973 22.0479C25.7761 22.1825 26.3999 22.516 26.8896 23.0064C27.3793 23.4967 27.713 24.1217 27.8485 24.8024C27.984 25.483 27.9151 26.1887 27.6506 26.8301C27.3861 27.4714 26.9379 28.0196 26.3627 28.4054C25.7874 28.7912 25.1111 28.997 24.4191 28.997C23.959 29.0023 23.5024 28.9154 23.0761 28.7414C22.6499 28.5674 22.2626 28.3098 21.9369 27.9837C21.6112 27.6576 21.3537 27.2696 21.1794 26.8423C21.0051 26.4151 20.9176 25.9573 20.922 25.4957ZM25.9385 25.4957C25.9307 25.1961 25.8351 24.9054 25.6635 24.66C25.4919 24.4146 25.252 24.2255 24.9738 24.1161C24.6956 24.0068 24.3915 23.9822 24.0994 24.0454C23.8073 24.1085 23.5402 24.2567 23.3316 24.4713C23.1231 24.6859 22.9822 24.9575 22.9267 25.252C22.8712 25.5465 22.9035 25.8509 23.0196 26.1271C23.1357 26.4033 23.3303 26.639 23.5792 26.8048C23.8282 26.9706 24.1203 27.0591 24.4191 27.0591C24.6225 27.063 24.8244 27.0249 25.0124 26.947C25.2004 26.8691 25.3704 26.7532 25.5117 26.6065C25.653 26.4598 25.7627 26.2854 25.8339 26.0943C25.9051 25.9032 25.9362 25.6994 25.9254 25.4957H25.9385Z" fill="black"/>
<path d="M28.8252 20.4111C28.8252 20.1747 28.8951 19.9435 29.026 19.7469C29.157 19.5503 29.3432 19.3971 29.5609 19.3066C29.7788 19.2161 30.0184 19.1924 30.2496 19.2385C30.4808 19.2847 30.6932 19.3985 30.8599 19.5657C31.0266 19.7329 31.1401 19.946 31.186 20.1779C31.2321 20.4098 31.2084 20.6502 31.1183 20.8687C31.0281 21.0871 30.8753 21.2739 30.6793 21.4052C30.4832 21.5366 30.2529 21.6067 30.0171 21.6067C29.7015 21.605 29.3994 21.4785 29.1762 21.2546C28.953 21.0308 28.8269 20.7277 28.8252 20.4111ZM29.0282 22.1848H30.9928V28.8064H29.0282V22.1848Z" fill="black"/>
<path d="M39.5607 25.4945C39.5845 25.9322 39.5218 26.3703 39.3762 26.7836C39.2305 27.1969 39.0048 27.5772 38.712 27.9026C38.4192 28.228 38.0652 28.4922 37.6702 28.6798C37.2753 28.8674 36.8472 28.9748 36.4107 28.9958C36.0443 29.0134 35.6784 28.9502 35.339 28.8106C34.9995 28.671 34.6947 28.4584 34.4461 28.1878V31.4723H32.4814V22.1836H34.4461V22.8077C34.6947 22.5371 34.9995 22.3245 35.339 22.1849C35.6784 22.0453 36.0443 21.9821 36.4107 21.9997C36.8467 22.0207 37.2742 22.1279 37.6686 22.3151C38.0632 22.5024 38.4169 22.7659 38.7096 23.0906C39.0023 23.4154 39.2281 23.7948 39.3742 24.2074C39.5203 24.6199 39.5837 25.0573 39.5607 25.4945ZM37.5961 25.4945C37.5883 25.1861 37.4905 24.8869 37.3149 24.6337C37.1392 24.3806 36.8934 24.1847 36.6079 24.0703C36.3224 23.9559 36.0096 23.928 35.7085 23.9901C35.4073 24.0522 35.1309 24.2015 34.9134 24.4196C34.696 24.6377 34.5472 24.9149 34.4853 25.217C34.4234 25.5192 34.4512 25.8328 34.5652 26.1192C34.6793 26.4056 34.8746 26.6522 35.127 26.8284C35.3794 27.0046 35.6777 27.1027 35.9851 27.1105C36.1996 27.1242 36.4145 27.0916 36.6155 27.0151C36.8164 26.9385 36.9986 26.8197 37.15 26.6666C37.3014 26.5135 37.4183 26.3297 37.493 26.1276C37.5677 25.9254 37.5984 25.7096 37.583 25.4945H37.5961Z" fill="black"/>
<path d="M45.677 26.8197C45.677 28.3437 44.3672 28.994 42.9264 28.994C42.3509 29.0451 41.7733 28.9223 41.2679 28.6413C40.7626 28.3603 40.3526 27.9341 40.0908 27.4175L41.8066 26.4387C41.8763 26.6776 42.0254 26.8855 42.2291 27.0277C42.4328 27.1699 42.6789 27.2379 42.9264 27.2204C43.4046 27.2204 43.6403 27.0693 43.6403 26.8065C43.6403 26.0773 40.3659 26.465 40.3659 24.1789C40.3659 22.7337 41.5839 22.0045 42.9854 22.0045C43.5025 21.9888 44.0145 22.112 44.4682 22.3615C44.9219 22.611 45.3008 22.9777 45.5657 23.4234L43.8433 24.33C43.7673 24.1565 43.6426 24.0089 43.4844 23.9051C43.3263 23.8013 43.1416 23.7458 42.9527 23.7453C42.6121 23.7453 42.4026 23.8767 42.4026 24.1198C42.4288 24.8752 45.677 24.3694 45.677 26.8197Z" fill="black"/>
<path d="M52.9076 22.1843V28.806H50.9429V28.1885C50.7144 28.4629 50.4243 28.6791 50.0965 28.8195C49.7688 28.96 49.4124 29.0206 49.0568 28.9965C47.747 28.9965 46.5879 28.0439 46.5879 26.2506V22.1843H48.5525V25.9616C48.5353 26.1226 48.554 26.2853 48.6073 26.4382C48.6605 26.591 48.747 26.73 48.8605 26.8451C48.974 26.9603 49.1116 27.0485 49.2634 27.1036C49.4151 27.1588 49.5773 27.1792 49.7379 27.1637C50.4583 27.1637 50.9626 26.7433 50.9626 25.8039V22.1843H52.9076Z" fill="black"/>
<path d="M64.2623 24.7461V28.8057H62.2976V24.9169C62.2976 24.26 61.9767 23.8264 61.348 23.8264C60.7194 23.8264 60.3133 24.2928 60.3133 25.0745V28.8057H58.3487V24.9169C58.3487 24.26 58.0343 23.8264 57.399 23.8264C56.7638 23.8264 56.3709 24.2928 56.3709 25.0745V28.8057H54.4062V22.1842H56.3709V22.7951C56.5762 22.5253 56.8455 22.3112 57.1544 22.1724C57.4632 22.0336 57.8017 21.9744 58.1391 22.0002C58.4779 21.9837 58.8153 22.0555 59.1182 22.2086C59.4212 22.3617 59.6795 22.5909 59.868 22.8739C60.0871 22.5781 60.3775 22.3427 60.7119 22.1899C61.0463 22.0372 61.4139 21.9719 61.7802 22.0002C63.2734 22.0002 64.2623 23.0907 64.2623 24.7461Z" fill="black"/>
<path d="M65.9389 22.143C66.7491 22.143 67.4058 21.4841 67.4058 20.6715C67.4058 19.8588 66.7491 19.2 65.9389 19.2C65.1288 19.2 64.4719 19.8588 64.4719 20.6715C64.4719 21.4841 65.1288 22.143 65.9389 22.143Z" fill="black"/>
<path d="M24.026 14.1288C27.8201 14.1288 30.8957 11.0436 30.8957 7.23781C30.8957 3.43205 27.8201 0.346863 24.026 0.346863C20.232 0.346863 17.1562 3.43205 17.1562 7.23781C17.1562 11.0436 20.232 14.1288 24.026 14.1288Z" fill="black"/>
<path d="M39.3825 14.1289C43.1765 14.1289 46.2522 11.0436 46.2522 7.23787C46.2522 3.43211 43.1765 0.346924 39.3825 0.346924C35.5884 0.346924 32.5127 3.43211 32.5127 7.23787C32.5127 11.0436 35.5884 14.1289 39.3825 14.1289Z" fill="black"/>
<path d="M15.5396 0.346924H1.80664V14.1222H15.5396V0.346924Z" fill="black"/>
</svg>
