<svg width="124" height="32" viewBox="0 0 124 32" fill="none" xmlns="http://www.w3.org/2000/svg">
<path d="M22.9102 13.5C25.2901 13.5 25.8255 14.5385 25.8255 15.8337C25.8255 17.2067 25.1778 18.1903 22.9201 18.1903C20.6767 18.1903 20.0283 17.2638 20.0283 15.8337C20.0283 14.4265 20.7351 13.5 22.9102 13.5Z" fill="black"/>
<path d="M47.7821 13.5002C50.1619 13.5002 50.6973 14.5387 50.6973 15.8339C50.6973 17.2068 50.0489 18.1905 47.7919 18.1905C45.5493 18.1905 44.9001 17.264 44.9001 15.8339C44.9001 14.4267 45.607 13.5002 47.7821 13.5002Z" fill="black"/>
<path fill-rule="evenodd" clip-rule="evenodd" d="M1.84082 29.3337V2.3219H122.106V29.3337H1.84082ZM59.1588 27.8099H120.589V3.84571H59.1588V27.8099ZM22.9229 20.4903C27.1479 20.4903 28.9241 18.6594 28.9241 15.8C28.9241 12.8941 26.9234 11.1669 22.9229 11.1669C18.9838 11.1669 16.9103 13.0427 16.9103 15.8C16.9103 18.9116 19.0854 20.4903 22.9229 20.4903ZM8.23352 11.3726V20.3531H16.7609V17.9615H11.3187V11.3726H8.23352ZM38.4677 20.3531L38.3881 19.483C37.356 20.223 36.0998 20.5791 34.835 20.4903C32.9337 20.4903 31.3502 19.9181 30.4621 18.763C29.8763 17.9198 29.5805 16.9075 29.6195 15.88C29.5862 14.8741 29.8922 13.8863 30.4879 13.0769C31.3866 11.9562 33.0156 11.2126 35.4409 11.2126C38.2311 11.2126 39.8707 12.0705 40.576 13.512C40.7274 13.8515 40.8164 14.2157 40.8384 14.587H37.8868C37.8124 14.3614 37.674 14.1625 37.4886 14.0149C36.9006 13.6232 36.1985 13.4421 35.4955 13.5006C35.0832 13.4504 34.6649 13.4886 34.2684 13.6129C33.8719 13.7371 33.5061 13.9445 33.1953 14.2213C32.8424 14.7067 32.6767 15.3041 32.7289 15.9029C32.688 16.4741 32.8403 17.0424 33.1612 17.5158C33.4748 17.8094 33.8476 18.0317 34.2543 18.1679C34.661 18.3041 35.092 18.3509 35.5183 18.3051C36.3649 18.3743 37.2054 18.112 37.864 17.5729C38.0055 17.3953 38.103 17.1864 38.1484 16.9634H34.9723V15.0335H40.9158V20.3531H38.4677ZM47.7937 20.4903C52.0179 20.4903 53.7949 18.6594 53.7949 15.8C53.7949 12.8941 51.7911 11.1669 47.7937 11.1669C43.8546 11.1669 41.7811 13.0427 41.7811 15.8C41.7811 18.9116 43.9562 20.4903 47.7937 20.4903Z" fill="black"/>
<path d="M64.3564 20.3181V11.3375H66.5558V20.3181H64.3564Z" fill="black"/>
<path d="M77.8498 16.5668C77.2924 17.299 76.333 17.6335 74.9808 17.6418C74.6956 17.6418 70.915 17.6304 70.915 17.6304V20.3192H68.7627V11.3386H74.9815C75.4799 11.2857 75.9841 11.3388 76.4604 11.4944C76.9374 11.6502 77.3758 11.9049 77.7482 12.2422C78.2396 12.8854 78.4785 13.6874 78.4201 14.4959C78.4702 15.2313 78.2692 15.9619 77.8498 16.5668ZM76.085 13.6388C75.8575 13.2959 75.3668 13.1055 74.5364 13.1055H70.9036V15.8392H74.5128C75.4009 15.8392 75.8689 15.6563 76.085 15.3013C76.2132 15.0511 76.2685 14.7695 76.2443 14.4891C76.2632 14.1967 76.2086 13.9042 76.085 13.6388Z" fill="black"/>
<path d="M84.7609 20.4549C80.7066 20.4549 79.4658 18.9311 79.4658 17.4232H81.766C81.766 18.1669 82.7793 18.7276 84.8633 18.7276C86.9353 18.7276 87.4821 18.3612 87.4821 17.7661C87.4821 17.1025 87.0725 16.8968 85.1477 16.6796C84.7685 16.6453 83.7363 16.5196 83.3488 16.4625C80.6186 16.1532 79.5674 15.341 79.5674 13.888C79.5674 12.3551 81.1055 11.2 84.4417 11.2C88.063 11.2 89.4524 12.6301 89.4524 14.1173H87.1772C87.1772 13.3623 86.3232 12.9273 84.3074 12.9273C82.2347 12.9273 81.7911 13.213 81.7911 13.7737C81.7911 14.3573 82.2461 14.5402 84.4454 14.8031C84.9467 14.8724 86.0623 14.9981 86.3695 15.0316C88.6932 15.2716 89.7406 16.1181 89.7406 17.6168C89.7368 19.4019 88.1426 20.4549 84.7609 20.4549Z" fill="black"/>
<path d="M96.2171 20.4438C93.2458 20.4438 91.3096 19.2651 91.3096 16.7867V11.3375H93.4839V16.8171C93.4839 17.9501 94.4069 18.7044 96.3082 18.7044C98.0274 18.7044 99.0528 17.9958 99.0528 16.8171V11.3375H101.205V16.9901C101.205 19.243 99.4054 20.4438 96.2171 20.4438Z" fill="black"/>
<path d="M112.991 20.3181V14.3234L110.201 20.3181H108.083L105.373 14.3234V20.3181H103.325V11.3375H106.099L109.174 18.1787L112.317 11.3375H115.047V20.3181H112.991Z" fill="black"/>
</svg>
