<svg width="17" height="15" viewBox="0 0 17 15" fill="none" xmlns="http://www.w3.org/2000/svg">
<path d="M16.7591 1.73442C16.6478 1.60854 16.4682 1.57688 16.3209 1.65452C16.2293 1.70276 16.0571 1.76607 15.8527 1.82864C16.1106 1.47588 16.318 1.08092 16.4096 0.725902C16.4492 0.572891 16.3913 0.411589 16.2652 0.320385C16.1392 0.229936 15.9714 0.229936 15.8453 0.320385C15.6467 0.462844 14.6882 0.890973 14.0822 1.02966C12.7126 -0.204223 11.1187 -0.332361 9.46181 0.662587C8.11491 1.47136 7.82178 3.11604 7.87894 4.11852C4.79601 3.81325 2.87971 2.13843 1.80101 0.752283C1.72553 0.65505 1.60388 0.603795 1.48957 0.611332C1.36938 0.620377 1.26093 0.688968 1.19937 0.795247C0.689336 1.6809 0.547904 2.66002 0.791929 3.62708C0.925301 4.1547 1.15833 4.61977 1.42874 4.99664C1.29903 4.93106 1.17372 4.8489 1.05574 4.75092C0.947285 4.65896 0.795594 4.64162 0.667352 4.70268C0.539843 4.76524 0.458501 4.8979 0.458501 5.04337C0.458501 6.70388 1.46831 7.81189 2.41144 8.39077C2.25902 8.37192 2.1 8.33725 1.93951 8.28675C1.80174 8.24379 1.65225 8.28675 1.55698 8.3983C1.46172 8.50911 1.439 8.66739 1.49836 8.80231C2.02818 10.0076 3.03213 10.8367 4.27424 11.1374C3.18969 11.7924 1.73799 12.1135 0.40867 11.956C0.236459 11.9311 0.0723096 12.0434 0.0180816 12.2138C-0.0361464 12.3841 0.0349362 12.5711 0.186628 12.6585C2.20332 13.823 4.02655 14.2391 5.6021 14.2391C7.89506 14.2391 9.6648 13.3587 10.742 12.6223C13.6462 10.64 15.4562 7.08075 15.2041 3.89617C15.6694 3.54266 16.3656 2.88991 16.7972 2.18817C16.8866 2.04647 16.8705 1.85954 16.7591 1.73442Z" fill="white"/>
</svg>
