<svg width="56" height="56" viewBox="0 0 56 56" fill="none" xmlns="http://www.w3.org/2000/svg">
<g clip-path="url(#clip0_906_26012)">
<path d="M27.9999 55.9989C43.4631 55.9989 55.9994 43.4615 55.9994 27.9995C55.9994 12.5374 43.4642 0 27.9999 0C12.5357 0 0.000488281 12.5385 0.000488281 27.9995C0.000488281 43.4604 12.5368 55.9989 27.9999 55.9989Z" fill="#F0F0F0"/>
<path fill-rule="evenodd" clip-rule="evenodd" d="M51.862 13.3799H26.7412V6.06836H45.4068C47.9699 8.10895 50.1548 10.5837 51.862 13.3799ZM55.9996 27.9998H26.7565V20.6904H55.036C55.6776 23.0738 56.0016 25.5315 55.9996 27.9998ZM28.0001 55.9993C34.3303 56.0138 40.476 53.8687 45.4221 49.9181H10.5792C15.5246 53.8693 21.6702 56.0146 28.0001 55.9993ZM51.8926 42.623H4.10761C2.71388 40.35 1.65554 37.8878 0.965332 35.3125H55.0349C54.3449 37.8879 53.2865 40.3501 51.8926 42.623Z" fill="#D80027"/>
<path fill-rule="evenodd" clip-rule="evenodd" d="M12.9995 4.35744H12.9743V4.37494L12.9995 4.35744ZM12.9995 4.35744H15.5314L13.146 6.06912L14.0483 8.86907L11.6684 7.15738L9.30375 8.86907L10.0814 6.45302C7.99137 8.20228 6.16786 10.2472 4.66852 12.5232H5.49319L3.98385 13.6169L3.29918 14.82L4.01447 17.0447L2.66153 16.0603L1.72858 18.2325L2.50622 20.6715H5.45929L3.11215 22.4007L4.01447 25.2006L1.63452 23.4889L0.234547 24.5149C0.0783218 25.6698 0.000125259 26.834 0.000489548 27.9995H27.9999V2.35835e-05C22.6867 -0.00688674 17.4821 1.50496 12.9995 4.35744ZM14.0429 25.1864L14.0637 25.2028H14.0483L14.0429 25.1864ZM13.1449 22.4018L14.0429 25.1864L11.6673 23.4911L9.28734 25.2028L10.1897 22.4029L7.80971 20.6912H10.7628L11.6651 17.8912L12.5674 20.6912H15.5205L13.1449 22.4018ZM13.1613 14.2513L14.0637 17.0513L11.6837 15.3396L9.30375 17.0513L10.2061 14.2513L7.82612 12.5396H10.7792L11.6815 9.73968L12.5838 12.5396H15.5369L13.1613 14.2513ZM21.7318 23.4911L24.1117 25.2028L23.2094 22.4029L25.5937 20.6912H22.6407L21.7383 17.8912L20.836 20.6912H17.883L20.2629 22.4029L19.3606 25.2028L21.7318 23.4911ZM23.2094 14.2513L24.1117 17.0513L21.7318 15.3396L19.3518 17.0513L20.2542 14.2513L17.8742 12.5396H20.8273L21.7296 9.73968L22.6319 12.5396H25.585L23.2094 14.2513ZM24.1117 8.89969L23.2094 6.09975L25.5937 4.38806H22.6407L21.7383 1.58812L20.836 4.38806H17.883L20.2629 6.09975L19.3606 8.89969L21.7405 7.18801L24.1117 8.89969Z" fill="#0052B4"/>
</g>
<defs>
<clipPath id="clip0_906_26012">
<rect width="56" height="56" fill="white"/>
</clipPath>
</defs>
</svg>
