<svg width="40" height="40" viewBox="0 0 40 40" fill="none" xmlns="http://www.w3.org/2000/svg">
<path d="M1.58936 38.4857L4.18915 28.992C2.58514 26.2137 1.74194 23.0615 1.74286 19.8331C1.74683 9.73175 9.96735 1.51367 20.0677 1.51367C24.9701 1.51581 29.5712 3.42377 33.0304 6.8866C36.4905 10.3494 38.3948 14.9524 38.3929 19.8474C38.3887 29.949 30.1678 38.168 20.0687 38.168C20.0677 38.168 20.069 38.168 20.0687 38.168H20.0604C16.9937 38.1668 13.9801 37.3972 11.3037 35.9384L1.58936 38.4857Z" fill="#64B161"/>
<path d="M0.929199 39.1493L3.62207 29.3156C1.961 26.4375 1.08728 23.1727 1.0885 19.828C1.09277 9.36444 9.60779 0.851562 20.071 0.851562C25.1486 0.853699 29.9145 2.83002 33.4985 6.41705C37.0822 10.0041 39.0551 14.7722 39.0533 19.8433C39.0487 30.3065 30.5325 38.8206 20.071 38.8206C20.0704 38.8206 20.0714 38.8206 20.071 38.8206H20.0628C16.8859 38.8194 13.7646 38.0226 10.9921 36.5104L0.929199 39.1493ZM11.4581 33.0751L12.0345 33.4166C14.4564 34.8539 17.2332 35.6141 20.0649 35.6157H20.071C28.7667 35.6157 35.8444 28.5392 35.848 19.842C35.8495 15.6273 34.2101 11.6639 31.2313 8.68268C28.2522 5.70142 24.2913 4.05865 20.0768 4.05682C11.3741 4.05682 4.29681 11.1323 4.29346 19.8292C4.29224 22.8096 5.12598 25.7118 6.70557 28.2234L7.08093 28.8203L5.48669 34.6406L11.4581 33.0751Z" fill="white"/>
<path fill-rule="evenodd" clip-rule="evenodd" d="M15.3267 11.8951C14.9715 11.1054 14.5974 11.0895 14.2592 11.0757C13.9827 11.0638 13.6663 11.0645 13.3504 11.0645C13.0342 11.0645 12.5203 11.1835 12.0858 11.658C11.6509 12.1326 10.4253 13.28 10.4253 15.6137C10.4253 17.9477 12.1251 20.2026 12.3622 20.5194C12.5994 20.8359 15.6435 25.7779 20.4644 27.6791C24.471 29.2593 25.2861 28.945 26.1559 28.866C27.0256 28.7869 28.962 27.7185 29.3572 26.611C29.7527 25.5035 29.7527 24.5544 29.634 24.3558C29.5153 24.1583 29.1991 24.0396 28.7249 23.8025C28.2506 23.5654 25.9188 22.4176 25.4839 22.2595C25.049 22.1011 24.7328 22.0224 24.4167 22.4973C24.1002 22.9715 23.192 24.0396 22.9152 24.3558C22.6384 24.6729 22.3616 24.7125 21.8874 24.4751C21.4131 24.2374 19.8854 23.7369 18.0733 22.121C16.6634 20.864 15.7112 19.3112 15.4344 18.8364C15.158 18.3621 15.4299 18.1278 15.6429 17.8687C16.0265 17.402 16.6701 16.5631 16.8282 16.247C16.9863 15.9302 16.9072 15.6534 16.7888 15.416C16.6701 15.1788 15.7482 12.8333 15.3267 11.8951Z" fill="white"/>
</svg>
